<?xml version="1.0" encoding="utf-8"?>
<!-- Generator: Adobe Illustrator 19.0.0, SVG Export Plug-In . SVG Version: 6.00 Build 0)  -->
<svg version="1.1" id="Layer_1" xmlns="http://www.w3.org/2000/svg" xmlns:xlink="http://www.w3.org/1999/xlink" x="0px" y="0px"
	 viewBox="0 0 42 42" style="enable-background:new 0 0 42 42;" xml:space="preserve">
<style type="text/css">
	.st0{fill:none;stroke:#000000;stroke-width:1.92;stroke-miterlimit:10;}
</style>
<line id="XMLID_10_" class="st0" x1="10.7" y1="1.2" x2="32.6" y2="1.2"/>
<line id="XMLID_9_" class="st0" x1="32.6" y1="6.6" x2="10.7" y2="6.6"/>
<polyline id="XMLID_8_" class="st0" points="25.2,40.9 7.3,40.9 7.3,0.1 "/>
<path id="XMLID_7_" class="st0" d="M26.3,40.9"/>
<path id="XMLID_6_" class="st0" d="M36,40.9"/>
<line id="XMLID_5_" class="st0" x1="36" y1="25.6" x2="36" y2="0.1"/>
<line id="XMLID_4_" class="st0" x1="10.7" y1="1.2" x2="32.6" y2="1.2"/>
<line id="XMLID_3_" class="st0" x1="32.6" y1="6.6" x2="10.7" y2="6.6"/>
<path id="XMLID_2_" class="st0" d="M24.2,40.9c0,0,0.6-8.1-0.4-11.7c0,0,12.2,2.8,12.2-4.1"/>
<path id="XMLID_1_" class="st0" d="M24.6,41.1c1.4-0.9,2.8-1.8,4.1-2.9c2.1-1.8,3.9-3.8,5.3-6.1c1.4-2.3,2-4.9,2-7.7"/>
</svg>
